# xmcd CD database file
#
# Track frame offsets:
#	170
#	36283
#	70860
#	100635
#	119668
#	156034
#	183283
#	211272
#	219679
#	241742
#	269152
#	294632
#
# Disc length: 4238 seconds
#
# Revision: 9
# Processed by: cddbd v1.5.2PL0 Copyright (c) Steve Scherf et al.
# Submitted via: CDex 1.70beta2
#
DISCID=b5108c0c
DTITLE=Anouar Brahem - Le pas du chat noir
DYEAR=2002
DGENRE=Jazz
TTITLE0=Le pas du chat noir
TTITLE1=De tout ton coeur
TTITLE2=Leila au pays du carrousel
TTITLE3=Pique-nique à Nagpur
TTITLE4=C'est ailleurs
TTITLE5=Toi qui sais
TTITLE6=L'arbre qui voit
TTITLE7=Un point bleu
TTITLE8=Les ailes du Bourak
TTITLE9=Rue du départ
TTITLE10=Leila au pays du carrousel, var.
TTITLE11=Déjà la nuit
EXTD=YEAR: 2002
EXTT0=
EXTT1=
EXTT2=
EXTT3=
EXTT4=
EXTT5=
EXTT6=
EXTT7=
EXTT8=
EXTT9=
EXTT10=
EXTT11=
PLAYORDER=
